<mxfile host="www.draw.io" modified="2024-03-28T15:13:44.017Z" agent="Mozilla/5.0 (Windows NT 10.0; Win64; x64) AppleWebKit/537.36 (KHTML, like Gecko) Chrome/123.0.0.0 Safari/537.36" etag="TyGPkkX5alcn4y2OKsaK" version="24.2.0" type="device">
  <diagram name="Page-1" id="NKpl67N1dhCzmagL3MU1">
    <mxGraphModel dx="2395" dy="710" grid="1" gridSize="10" guides="1" tooltips="1" connect="1" arrows="1" fold="1" page="1" pageScale="1" pageWidth="827" pageHeight="1169" math="0" shadow="0">
      <root>
        <mxCell id="0" />
        <mxCell id="1" parent="0" />
        <mxCell id="82HpFPczMDYcclJVfw-I-6" value="" style="edgeStyle=orthogonalEdgeStyle;rounded=0;orthogonalLoop=1;jettySize=auto;html=1;" edge="1" parent="1" source="82HpFPczMDYcclJVfw-I-3" target="82HpFPczMDYcclJVfw-I-5">
          <mxGeometry relative="1" as="geometry" />
        </mxCell>
        <mxCell id="82HpFPczMDYcclJVfw-I-7" style="edgeStyle=orthogonalEdgeStyle;rounded=0;orthogonalLoop=1;jettySize=auto;html=1;exitX=0.5;exitY=1;exitDx=0;exitDy=0;" edge="1" parent="1" source="82HpFPczMDYcclJVfw-I-3" target="82HpFPczMDYcclJVfw-I-4">
          <mxGeometry relative="1" as="geometry" />
        </mxCell>
        <mxCell id="82HpFPczMDYcclJVfw-I-9" style="edgeStyle=orthogonalEdgeStyle;rounded=0;orthogonalLoop=1;jettySize=auto;html=1;exitX=0.5;exitY=1;exitDx=0;exitDy=0;entryX=0.5;entryY=0;entryDx=0;entryDy=0;" edge="1" parent="1" source="82HpFPczMDYcclJVfw-I-3" target="82HpFPczMDYcclJVfw-I-8">
          <mxGeometry relative="1" as="geometry" />
        </mxCell>
        <mxCell id="82HpFPczMDYcclJVfw-I-3" value="&lt;b&gt;&lt;font style=&quot;font-size: 16px;&quot;&gt;Input&lt;/font&gt;&lt;/b&gt;" style="rounded=0;whiteSpace=wrap;html=1;fillColor=#f5f5f5;fontColor=#333333;strokeColor=#666666;" vertex="1" parent="1">
          <mxGeometry x="120" y="60" width="90" height="40" as="geometry" />
        </mxCell>
        <mxCell id="82HpFPczMDYcclJVfw-I-18" style="edgeStyle=orthogonalEdgeStyle;rounded=0;orthogonalLoop=1;jettySize=auto;html=1;exitX=0.5;exitY=1;exitDx=0;exitDy=0;entryX=0.5;entryY=0;entryDx=0;entryDy=0;" edge="1" parent="1" source="82HpFPczMDYcclJVfw-I-4" target="82HpFPczMDYcclJVfw-I-14">
          <mxGeometry relative="1" as="geometry">
            <Array as="points">
              <mxPoint x="15" y="420" />
              <mxPoint x="166" y="420" />
            </Array>
          </mxGeometry>
        </mxCell>
        <mxCell id="82HpFPczMDYcclJVfw-I-4" value="&lt;b&gt;&lt;font style=&quot;font-size: 16px;&quot;&gt;3 * 3&lt;/font&gt;&lt;/b&gt;&lt;div&gt;&lt;b&gt;&lt;font style=&quot;font-size: 16px;&quot;&gt;MaxPooling,&lt;/font&gt;&lt;/b&gt;&lt;/div&gt;&lt;div&gt;&lt;b&gt;&lt;font style=&quot;font-size: 16px;&quot;&gt;Stride 2&lt;/font&gt;&lt;/b&gt;&lt;/div&gt;" style="rounded=0;whiteSpace=wrap;html=1;fillColor=#d5e8d4;strokeColor=#82b366;" vertex="1" parent="1">
          <mxGeometry x="-50" y="165" width="130" height="70" as="geometry" />
        </mxCell>
        <mxCell id="82HpFPczMDYcclJVfw-I-16" style="edgeStyle=orthogonalEdgeStyle;rounded=0;orthogonalLoop=1;jettySize=auto;html=1;exitX=0.5;exitY=1;exitDx=0;exitDy=0;entryX=0.5;entryY=0;entryDx=0;entryDy=0;" edge="1" parent="1" source="82HpFPczMDYcclJVfw-I-5" target="82HpFPczMDYcclJVfw-I-14">
          <mxGeometry relative="1" as="geometry">
            <mxPoint x="110" y="390" as="targetPoint" />
          </mxGeometry>
        </mxCell>
        <mxCell id="82HpFPczMDYcclJVfw-I-5" value="&lt;span style=&quot;font-size: 16px;&quot;&gt;&lt;b&gt;3 * 3 Conv, 48&lt;/b&gt;&lt;/span&gt;" style="rounded=0;whiteSpace=wrap;html=1;fillColor=#f8cecc;strokeColor=#b85450;" vertex="1" parent="1">
          <mxGeometry x="117.5" y="165" width="95" height="50" as="geometry" />
        </mxCell>
        <mxCell id="82HpFPczMDYcclJVfw-I-11" value="" style="edgeStyle=orthogonalEdgeStyle;rounded=0;orthogonalLoop=1;jettySize=auto;html=1;" edge="1" parent="1" source="82HpFPczMDYcclJVfw-I-8" target="82HpFPczMDYcclJVfw-I-10">
          <mxGeometry relative="1" as="geometry" />
        </mxCell>
        <mxCell id="82HpFPczMDYcclJVfw-I-8" value="&lt;span style=&quot;font-size: 16px;&quot;&gt;&lt;b&gt;1 * 1 Conv, 32&lt;/b&gt;&lt;/span&gt;" style="rounded=0;whiteSpace=wrap;html=1;fillColor=#f8cecc;strokeColor=#b85450;" vertex="1" parent="1">
          <mxGeometry x="250" y="165" width="95" height="50" as="geometry" />
        </mxCell>
        <mxCell id="82HpFPczMDYcclJVfw-I-13" value="" style="edgeStyle=orthogonalEdgeStyle;rounded=0;orthogonalLoop=1;jettySize=auto;html=1;" edge="1" parent="1" source="82HpFPczMDYcclJVfw-I-10" target="82HpFPczMDYcclJVfw-I-12">
          <mxGeometry relative="1" as="geometry" />
        </mxCell>
        <mxCell id="82HpFPczMDYcclJVfw-I-10" value="&lt;span style=&quot;font-size: 16px;&quot;&gt;&lt;b&gt;3 * 3 Conv, 32&lt;/b&gt;&lt;/span&gt;" style="rounded=0;whiteSpace=wrap;html=1;fillColor=#f8cecc;strokeColor=#b85450;" vertex="1" parent="1">
          <mxGeometry x="250" y="250" width="95" height="50" as="geometry" />
        </mxCell>
        <mxCell id="82HpFPczMDYcclJVfw-I-19" style="edgeStyle=orthogonalEdgeStyle;rounded=0;orthogonalLoop=1;jettySize=auto;html=1;exitX=0.5;exitY=1;exitDx=0;exitDy=0;entryX=0.5;entryY=0;entryDx=0;entryDy=0;" edge="1" parent="1" source="82HpFPczMDYcclJVfw-I-12" target="82HpFPczMDYcclJVfw-I-14">
          <mxGeometry relative="1" as="geometry" />
        </mxCell>
        <mxCell id="82HpFPczMDYcclJVfw-I-12" value="&lt;span style=&quot;font-size: 16px;&quot;&gt;&lt;b&gt;3 * 3 Conv, 48&lt;/b&gt;&lt;/span&gt;" style="rounded=0;whiteSpace=wrap;html=1;fillColor=#f8cecc;strokeColor=#b85450;" vertex="1" parent="1">
          <mxGeometry x="250" y="350" width="95" height="50" as="geometry" />
        </mxCell>
        <mxCell id="82HpFPczMDYcclJVfw-I-14" value="&lt;b&gt;&lt;font style=&quot;font-size: 16px;&quot;&gt;Concatenate&lt;/font&gt;&lt;/b&gt;" style="rounded=0;whiteSpace=wrap;html=1;fillColor=#f5f5f5;fontColor=#333333;strokeColor=#666666;" vertex="1" parent="1">
          <mxGeometry x="105.25" y="440" width="119.5" height="40" as="geometry" />
        </mxCell>
      </root>
    </mxGraphModel>
  </diagram>
</mxfile>
